<svg width="20.000000" height="20.000000" viewBox="0 0 20 20" fill="none" xmlns="http://www.w3.org/2000/svg" xmlns:xlink="http://www.w3.org/1999/xlink">
	<desc>
			Created with Pixso.
	</desc>
	<defs/>
	<path id="alternate_email" d="M10 20C8.61 20 7.31 19.73 6.1 19.21C4.88 18.68 3.82 17.97 2.92 17.07C2.02 16.17 1.31 15.11 0.78 13.89C0.26 12.68 0 11.38 0 10C0 8.61 0.26 7.31 0.78 6.1C1.31 4.88 2.02 3.82 2.92 2.92C3.82 2.02 4.88 1.31 6.1 0.78C7.31 0.26 8.61 0 10 0C11.38 0 12.68 0.26 13.89 0.78C15.11 1.31 16.17 2.02 17.07 2.92C17.97 3.82 18.68 4.88 19.21 6.1C19.73 7.31 20 8.61 20 10L20 11.45C20 12.43 19.66 13.27 18.98 13.96C18.31 14.65 17.48 15 16.5 15C15.91 15 15.36 14.87 14.85 14.62C14.33 14.37 13.89 14.01 13.55 13.55C13.06 14.03 12.52 14.39 11.91 14.63C11.3 14.87 10.66 15 10 15C8.61 15 7.43 14.51 6.46 13.53C5.48 12.56 5 11.38 5 10C5 8.61 5.48 7.43 6.46 6.46C7.43 5.48 8.61 5 10 5C11.38 5 12.56 5.48 13.53 6.46C14.51 7.43 15 8.61 15 10L15 11.45C15 11.88 15.14 12.25 15.42 12.55C15.7 12.85 16.06 13 16.5 13C16.93 13 17.29 12.85 17.57 12.55C17.85 12.25 18 11.88 18 11.45L18 10C18 7.76 17.22 5.87 15.67 4.32C14.12 2.77 12.23 2 10 2C7.76 2 5.87 2.77 4.32 4.32C2.77 5.87 2 7.76 2 10C2 12.23 2.77 14.12 4.32 15.67C5.87 17.22 7.76 18 10 18L15 18L15 20L10 20ZM10 13C10.83 13 11.54 12.7 12.12 12.12C12.7 11.54 13 10.83 13 10C13 9.16 12.7 8.45 12.12 7.87C11.54 7.29 10.83 7 10 7C9.16 7 8.45 7.29 7.87 7.87C7.29 8.45 7 9.16 7 10C7 10.83 7.29 11.54 7.87 12.12C8.45 12.7 9.16 13 10 13Z" fill="#FFFFFF" fill-opacity="1.000000" fill-rule="nonzero"/>
</svg>
