<svg width="18.000000" height="18.000000" viewBox="0 0 18 18" fill="none" xmlns="http://www.w3.org/2000/svg" xmlns:xlink="http://www.w3.org/1999/xlink">
	<desc>
			Created with Pixso.
	</desc>
	<defs/>
	<path id="call" d="M16.95 18C14.86 18 12.8 17.54 10.77 16.63C8.74 15.72 6.89 14.44 5.22 12.77C3.55 11.1 2.27 9.25 1.36 7.22C0.45 5.19 0 3.13 0 1.05C0 0.75 0.1 0.5 0.3 0.3C0.5 0.1 0.75 0 1.05 0L5.1 0C5.33 0 5.54 0.07 5.72 0.23C5.9 0.39 6.01 0.58 6.05 0.8L6.69 4.3C6.73 4.56 6.72 4.79 6.67 4.97C6.62 5.15 6.53 5.31 6.39 5.44L3.97 7.89C4.3 8.51 4.7 9.11 5.16 9.68C5.62 10.26 6.12 10.81 6.67 11.35C7.19 11.86 7.73 12.34 8.3 12.78C8.86 13.22 9.46 13.63 10.1 14L12.45 11.64C12.6 11.5 12.79 11.38 13.03 11.31C13.27 11.23 13.51 11.21 13.75 11.25L17.2 11.95C17.43 12.01 17.62 12.13 17.77 12.31C17.92 12.48 18 12.68 18 12.89L18 16.95C18 17.25 17.89 17.5 17.7 17.7C17.5 17.89 17.25 18 16.95 18ZM3.02 6L4.67 4.35L4.25 2L2.02 2C2.1 2.68 2.22 3.35 2.37 4.02C2.52 4.69 2.74 5.35 3.02 6ZM11.97 14.95C12.62 15.23 13.28 15.45 13.96 15.62C14.63 15.79 15.31 15.89 16 15.95L16 13.75L13.64 13.27L11.97 14.95Z" fill="#FFFFFF" fill-opacity="1.000000" fill-rule="nonzero"/>
</svg>
