<svg width="56.000000" height="56.000000" viewBox="0 0 56 56" fill="none" xmlns="http://www.w3.org/2000/svg" xmlns:xlink="http://www.w3.org/1999/xlink">
	<desc>
			Created with Pixso.
	</desc>
	<defs>
		<clipPath id="clip258_2939">
			<rect id="Frame 34" rx="27.500000" width="55.000000" height="55.000000" transform="translate(0.500000 0.500000)" fill="white" fill-opacity="0"/>
		</clipPath>
	</defs>
	<rect id="Frame 34" rx="27.500000" width="55.000000" height="55.000000" transform="translate(0.500000 0.500000)" fill="#D84040" fill-opacity="1.000000"/>
	<g clip-path="url(#clip258_2939)">
		<mask id="mask258_2941" mask-type="alpha" maskUnits="userSpaceOnUse" x="8.000000" y="8.000000" width="40.000000" height="40.000000">
			<rect id="Bounding box" x="8.000000" y="8.000000" width="40.000000" height="40.000000" fill="#D9D9D9" fill-opacity="1.000000"/>
		</mask>
		<g mask="url(#mask258_2941)">
			<path id="supervisor_account" d="M36.33 32.99C35.16 32.99 34.18 32.59 33.37 31.79C32.56 30.98 32.16 29.99 32.16 28.83C32.16 27.66 32.56 26.68 33.37 25.87C34.18 25.06 35.16 24.66 36.33 24.66C37.49 24.66 38.48 25.06 39.29 25.87C40.09 26.68 40.49 27.66 40.49 28.83C40.49 29.99 40.09 30.98 39.29 31.79C38.48 32.59 37.49 32.99 36.33 32.99ZM27.99 41.33L27.99 38.99C27.99 38.33 28.17 37.71 28.52 37.14C28.86 36.57 29.36 36.16 29.99 35.91C30.99 35.49 32.03 35.18 33.1 34.97C34.17 34.77 35.24 34.66 36.33 34.66C37.41 34.66 38.49 34.77 39.56 34.97C40.63 35.18 41.66 35.49 42.66 35.91C43.3 36.16 43.79 36.57 44.14 37.14C44.49 37.71 44.66 38.33 44.66 38.99L44.66 41.33L27.99 41.33ZM24.66 27.99C22.83 27.99 21.26 27.34 19.95 26.04C18.65 24.73 17.99 23.16 17.99 21.33C17.99 19.49 18.65 17.93 19.95 16.62C21.26 15.31 22.83 14.66 24.66 14.66C26.49 14.66 28.06 15.31 29.37 16.62C30.68 17.93 31.33 19.49 31.33 21.33C31.33 23.16 30.68 24.73 29.37 26.04C28.06 27.34 26.49 27.99 24.66 27.99ZM11.33 41.33L11.33 36.66C11.33 35.72 11.56 34.85 12.04 34.06C12.51 33.27 13.16 32.66 13.99 32.24C15.66 31.41 17.39 30.77 19.18 30.33C20.97 29.88 22.8 29.66 24.66 29.66C25.63 29.66 26.61 29.74 27.58 29.91C28.55 30.08 29.52 30.27 30.49 30.49L27.66 33.33C27.16 33.19 26.66 33.1 26.16 33.06C25.66 33.02 25.16 32.99 24.66 32.99C23.05 32.99 21.47 33.19 19.93 33.58C18.39 33.97 16.91 34.52 15.49 35.24C15.22 35.38 15.01 35.58 14.87 35.83C14.73 36.08 14.66 36.36 14.66 36.66L14.66 37.99L24.66 37.99L24.66 41.33L11.33 41.33ZM24.66 24.66C25.58 24.66 26.36 24.34 27.02 23.68C27.67 23.03 27.99 22.24 27.99 21.33C27.99 20.41 27.67 19.63 27.02 18.97C26.36 18.32 25.58 17.99 24.66 17.99C23.74 17.99 22.96 18.32 22.31 18.97C21.65 19.63 21.33 20.41 21.33 21.33C21.33 22.24 21.65 23.03 22.31 23.68C22.96 24.34 23.74 24.66 24.66 24.66Z" fill="#FFFFFF" fill-opacity="1.000000" fill-rule="nonzero"/>
		</g>
	</g>
</svg>
