<svg width="12.000000" height="24.000000" viewBox="0 0 12 24" fill="none" xmlns="http://www.w3.org/2000/svg" xmlns:xlink="http://www.w3.org/1999/xlink">
	<desc>
			Created with Pixso.
	</desc>
	<defs/>
	<path id="XMLID_835_" d="M0.38 12.78L2.98 12.78L2.98 23.61C2.98 23.82 3.15 24 3.37 24L7.78 24C7.99 24 8.16 23.82 8.16 23.61L8.16 12.83L11.16 12.83C11.35 12.83 11.52 12.68 11.54 12.49L11.99 8.5C12 8.39 11.97 8.28 11.9 8.2C11.83 8.11 11.72 8.07 11.61 8.07L8.16 8.07L8.16 5.57C8.16 4.81 8.57 4.43 9.36 4.43C9.47 4.43 11.61 4.43 11.61 4.43C11.82 4.43 12 4.26 12 4.04L12 0.38C12 0.17 11.82 0 11.61 0L8.5 0C8.48 0 8.43 0 8.36 0C7.82 0 5.95 0.1 4.47 1.48C2.83 3 3.06 4.83 3.11 5.14L3.11 8.07L0.38 8.07C0.17 8.07 0 8.24 0 8.45L0 12.39C0 12.6 0.17 12.78 0.38 12.78Z" fill="#FFFFFF" fill-opacity="1.000000" fill-rule="nonzero"/>
</svg>
