<svg width="56.000000" height="56.000000" viewBox="0 0 56 56" fill="none" xmlns="http://www.w3.org/2000/svg" xmlns:xlink="http://www.w3.org/1999/xlink">
	<desc>
			Created with Pixso.
	</desc>
	<defs>
		<clipPath id="clip258_2924">
			<rect id="Frame 34" rx="27.500000" width="55.000000" height="55.000000" transform="translate(0.500000 0.500000)" fill="white" fill-opacity="0"/>
		</clipPath>
	</defs>
	<rect id="Frame 34" rx="27.500000" width="55.000000" height="55.000000" transform="translate(0.500000 0.500000)" fill="#D84040" fill-opacity="1.000000"/>
	<g clip-path="url(#clip258_2924)">
		<mask id="mask258_2926" mask-type="alpha" maskUnits="userSpaceOnUse" x="8.000000" y="8.000000" width="40.000000" height="40.000000">
			<rect id="Bounding box" x="8.000000" y="8.000000" width="40.000000" height="40.000000" fill="#D9D9D9" fill-opacity="1.000000"/>
		</mask>
		<g mask="url(#mask258_2926)">
			<path id="paid" d="M26.49 39.66L29.41 39.66L29.41 37.58C30.8 37.33 31.99 36.79 32.99 35.95C33.99 35.12 34.49 33.88 34.49 32.25C34.49 31.08 34.16 30.01 33.49 29.04C32.83 28.06 31.49 27.22 29.49 26.5C27.83 25.94 26.68 25.45 26.04 25.04C25.4 24.62 25.08 24.05 25.08 23.33C25.08 22.61 25.33 22.04 25.85 21.62C26.36 21.2 27.11 21 28.08 21C28.97 21 29.66 21.21 30.16 21.64C30.66 22.07 31.02 22.61 31.24 23.25L33.91 22.16C33.61 21.19 33.04 20.34 32.22 19.62C31.4 18.9 30.49 18.5 29.49 18.41L29.49 16.33L26.58 16.33L26.58 18.41C25.19 18.72 24.11 19.33 23.33 20.25C22.55 21.16 22.16 22.19 22.16 23.33C22.16 24.63 22.54 25.69 23.31 26.5C24.07 27.3 25.27 28 26.91 28.58C28.66 29.22 29.88 29.79 30.56 30.29C31.24 30.79 31.58 31.44 31.58 32.25C31.58 33.16 31.25 33.84 30.6 34.27C29.95 34.7 29.16 34.91 28.24 34.91C27.33 34.91 26.52 34.63 25.81 34.06C25.1 33.49 24.58 32.63 24.24 31.5L21.49 32.58C21.88 33.91 22.49 34.99 23.31 35.81C24.13 36.63 25.19 37.19 26.49 37.5L26.49 39.66ZM27.99 44.66C25.69 44.66 23.52 44.22 21.49 43.35C19.47 42.47 17.7 41.29 16.2 39.79C14.7 38.29 13.52 36.52 12.64 34.5C11.77 32.47 11.33 30.3 11.33 28C11.33 25.69 11.77 23.52 12.64 21.5C13.52 19.47 14.7 17.7 16.2 16.2C17.7 14.7 19.47 13.52 21.49 12.64C23.52 11.77 25.69 11.33 27.99 11.33C30.3 11.33 32.47 11.77 34.49 12.64C36.52 13.52 38.29 14.7 39.79 16.2C41.29 17.7 42.47 19.47 43.35 21.5C44.22 23.52 44.66 25.69 44.66 28C44.66 30.3 44.22 32.47 43.35 34.5C42.47 36.52 41.29 38.29 39.79 39.79C38.29 41.29 36.52 42.47 34.49 43.35C32.47 44.22 30.3 44.66 27.99 44.66ZM27.99 41.33C31.72 41.33 34.87 40.04 37.45 37.45C40.04 34.87 41.33 31.72 41.33 28C41.33 24.27 40.04 21.12 37.45 18.54C34.87 15.95 31.72 14.66 27.99 14.66C24.27 14.66 21.12 15.95 18.54 18.54C15.95 21.12 14.66 24.27 14.66 28C14.66 31.72 15.95 34.87 18.54 37.45C21.12 40.04 24.27 41.33 27.99 41.33Z" fill="#FFFFFF" fill-opacity="1.000000" fill-rule="nonzero"/>
		</g>
	</g>
</svg>
