<svg width="56.000000" height="56.000000" viewBox="0 0 56 56" fill="none" xmlns="http://www.w3.org/2000/svg" xmlns:xlink="http://www.w3.org/1999/xlink">
	<desc>
			Created with Pixso.
	</desc>
	<defs>
		<clipPath id="clip258_2932">
			<rect id="Frame 34" rx="27.500000" width="55.000000" height="55.000000" transform="translate(0.500000 0.500000)" fill="white" fill-opacity="0"/>
		</clipPath>
	</defs>
	<rect id="Frame 34" rx="27.500000" width="55.000000" height="55.000000" transform="translate(0.500000 0.500000)" fill="#D84040" fill-opacity="1.000000"/>
	<g clip-path="url(#clip258_2932)">
		<mask id="mask258_2934" mask-type="alpha" maskUnits="userSpaceOnUse" x="8.000000" y="8.000000" width="40.000000" height="40.000000">
			<rect id="Bounding box" x="8.000000" y="8.000000" width="40.000000" height="40.000000" fill="#D9D9D9" fill-opacity="1.000000"/>
		</mask>
		<g mask="url(#mask258_2934)">
			<path id="dashboard_customize" d="M13 13L26.33 13L26.33 26.33L13 26.33L13 13ZM29.66 13L43 13L43 26.33L29.66 26.33L29.66 13ZM13 29.66L26.33 29.66L26.33 43L13 43L13 29.66ZM34.66 29.66L38 29.66L38 34.66L43 34.66L43 38L38 38L38 43L34.66 43L34.66 38L29.66 38L29.66 34.66L34.66 34.66L34.66 29.66ZM33 16.33L33 23L39.66 23L39.66 16.33L33 16.33ZM16.33 16.33L16.33 23L23 23L23 16.33L16.33 16.33ZM16.33 33L16.33 39.66L23 39.66L23 33L16.33 33Z" fill="#FFFFFF" fill-opacity="1.000000" fill-rule="nonzero"/>
		</g>
	</g>
</svg>
