<svg width="56.000000" height="56.000000" viewBox="0 0 56 56" fill="none" xmlns="http://www.w3.org/2000/svg" xmlns:xlink="http://www.w3.org/1999/xlink">
	<desc>
			Created with Pixso.
	</desc>
	<defs>
		<clipPath id="clip258_2917">
			<rect id="Frame 34" rx="27.500000" width="55.000000" height="55.000000" transform="translate(0.500000 0.500000)" fill="white" fill-opacity="0"/>
		</clipPath>
	</defs>
	<rect id="Frame 34" rx="27.500000" width="55.000000" height="55.000000" transform="translate(0.500000 0.500000)" fill="#D84040" fill-opacity="1.000000"/>
	<g clip-path="url(#clip258_2917)">
		<mask id="mask258_2919" mask-type="alpha" maskUnits="userSpaceOnUse" x="8.000000" y="8.000000" width="40.000000" height="40.000000">
			<rect id="Bounding box" x="8.000000" y="8.000000" width="40.000000" height="40.000000" fill="#D9D9D9" fill-opacity="1.000000"/>
		</mask>
		<g mask="url(#mask258_2919)">
			<path id="acute" d="M33 41.33C29.27 41.33 26.12 40.04 23.54 37.45C20.95 34.87 19.66 31.72 19.66 27.99C19.66 24.3 20.95 21.15 23.54 18.56C26.12 15.96 29.27 14.66 33 14.66C36.69 14.66 39.84 15.96 42.43 18.56C45.03 21.15 46.33 24.3 46.33 27.99C46.33 31.72 45.03 34.87 42.43 37.45C39.84 40.04 36.69 41.33 33 41.33ZM33 37.99C35.77 37.99 38.13 37.02 40.08 35.08C42.02 33.13 43 30.77 43 27.99C43 25.22 42.02 22.86 40.08 20.91C38.13 18.97 35.77 17.99 33 17.99C30.22 17.99 27.86 18.97 25.91 20.91C23.97 22.86 23 25.22 23 27.99C23 30.77 23.97 33.13 25.91 35.08C27.86 37.02 30.22 37.99 33 37.99ZM36.79 34.2L39.16 31.83L34.66 27.33L34.66 21.33L31.33 21.33L31.33 28.7L36.79 34.2ZM11.33 22.99L11.33 19.66L18 19.66L18 22.99L11.33 22.99ZM9.66 29.66L9.66 26.33L18 26.33L18 29.66L9.66 29.66ZM11.33 36.33L11.33 32.99L18 32.99L18 36.33L11.33 36.33Z" fill="#FFFFFF" fill-opacity="1.000000" fill-rule="nonzero"/>
		</g>
	</g>
</svg>
