<svg width="36.000000" height="25.474609" viewBox="0 0 36 25.4746" fill="none" xmlns="http://www.w3.org/2000/svg" xmlns:xlink="http://www.w3.org/1999/xlink">
	<desc>
			Created with Pixso.
	</desc>
	<defs/>
	<path id="Vector" d="M28.52 0L7.47 0C3.34 0 0 3.34 0 7.47L0 17.99C0 22.12 3.34 25.47 7.47 25.47L28.52 25.47C32.65 25.47 36 22.12 36 17.99L36 7.47C36 3.34 32.65 0 28.52 0ZM23.46 13.24L13.62 17.94C13.36 18.06 13.05 17.87 13.05 17.58L13.05 7.9C13.05 7.6 13.36 7.41 13.63 7.55L23.47 12.54C23.76 12.68 23.76 13.1 23.46 13.24Z" fill="#FFFFFF" fill-opacity="1.000000" fill-rule="nonzero"/>
</svg>
